<?xml version="1.0" standalone="no"?>
<!DOCTYPE svg PUBLIC "-//W3C//DTD SVG 20010904//EN"
 "http://www.w3.org/TR/2001/REC-SVG-20010904/DTD/svg10.dtd">
<svg version="1.0" xmlns="http://www.w3.org/2000/svg"
 width="176.000000pt" height="176.000000pt" viewBox="0 0 176.000000 176.000000"
 preserveAspectRatio="xMidYMid meet">
<metadata>
Created by potrace 1.14, written by Peter Selinger 2001-2017
</metadata>
<g transform="translate(0.000000,176.000000) scale(0.100000,-0.100000)"
fill="#000000" stroke="none">
<path d="M0 880 l0 -880 880 0 880 0 0 880 0 880 -880 0 -880 0 0 -880z m1224
316 c-17 -8 -34 -21 -37 -30 -4 -9 -12 -16 -18 -16 -7 0 2 14 19 30 18 17 40
30 49 30 11 -1 6 -6 -13 -14z m87 -1 c19 -8 27 -14 19 -14 -14 0 -72 28 -59
29 4 0 22 -7 40 -15z m-315 -17 l19 -23 -25 20 c-14 11 -27 21 -29 22 -2 2 0
3 6 3 5 0 18 -10 29 -22z m-163 -70 c-36 -46 -67 -84 -68 -85 -1 -2 1 11 3 28
3 17 7 26 11 21 3 -6 30 19 59 54 29 35 54 64 57 64 2 0 -25 -37 -62 -82z
m538 55 c13 -16 12 -17 -3 -4 -17 13 -22 21 -14 21 2 0 10 -8 17 -17z m-778 0
c-7 -2 -19 -2 -25 0 -7 3 -2 5 12 5 14 0 19 -2 13 -5z m48 -20 c13 -17 13 -17
-6 -3 -11 8 -22 16 -24 17 -2 2 0 3 6 3 6 0 17 -8 24 -17z m-121 3 c0 -2 -7
-7 -16 -10 -8 -3 -12 -2 -9 4 6 10 25 14 25 6z m217 -13 c10 -10 13 -14 5 -9
-7 5 -30 13 -50 17 -37 7 -37 7 -6 8 18 0 40 -7 51 -16z m279 -27 c-4 -19 -10
-37 -14 -40 -5 -3 -3 15 2 39 12 52 21 52 12 1z m97 25 c-23 -11 -44 -29 -48
-41 -4 -12 -9 -19 -12 -17 -17 17 50 76 87 76 8 0 -4 -8 -27 -18z m292 -21
l20 -25 -22 19 c-13 11 -23 24 -23 29 0 6 1 8 3 6 1 -2 11 -15 22 -29z m-1005
-57 c-68 -74 -77 -83 -60 -58 17 24 103 115 109 115 2 0 -20 -26 -49 -57z
m1070 -28 c0 -32 -39 -86 -83 -114 l-38 -25 28 -24 28 -24 -34 23 -34 23 23
15 c86 59 115 114 86 165 l-16 31 20 -24 c11 -13 20 -33 20 -46z m-1157 -90
c-9 -19 -18 -33 -21 -31 -4 5 26 66 33 66 3 0 -3 -16 -12 -35z m-26 -67 c-3
-8 -6 -5 -6 6 -1 11 2 17 5 13 3 -3 4 -12 1 -19z m1131 -69 c-3 -8 -7 -3 -11
10 -4 17 -3 21 5 13 5 -5 8 -16 6 -23z m-1058 -73 c19 -8 29 -15 22 -16 -24 0
-71 30 -82 53 l-11 22 18 -22 c10 -12 34 -29 53 -37z m131 4 c-24 -11 -48 -20
-55 -20 -16 1 66 38 84 39 8 0 -5 -8 -29 -19z m146 -12 c-3 -7 -5 -2 -5 12 0
14 2 19 5 13 2 -7 2 -19 0 -25z m-64 15 c-7 -2 -19 -2 -25 0 -7 3 -2 5 12 5
14 0 19 -2 13 -5z m854 -50 c-3 -10 -5 -4 -5 12 0 17 2 24 5 18 2 -7 2 -21 0
-30z m-744 -32 c-4 -6 -43 30 -43 40 0 5 10 -2 23 -14 13 -12 22 -24 20 -26z
m151 -62 c23 -10 34 -19 25 -19 -23 0 -79 41 -97 70 -11 20 -10 19 9 -4 12
-16 41 -37 63 -47z m577 43 c-13 -24 -59 -62 -75 -62 -6 0 4 9 22 20 18 11 38
31 44 45 6 14 13 23 15 21 3 -2 0 -13 -6 -24z m-678 11 c-7 -2 -19 -2 -25 0
-7 3 -2 5 12 5 14 0 19 -2 13 -5z m364 -69 c-3 -3 -12 -4 -19 -1 -8 3 -5 6 6
6 11 1 17 -2 13 -5z m222 -10 c8 -7 -94 -2 -119 6 -15 5 4 6 45 3 39 -3 72 -7
74 -9z m-161 -1 c-10 -2 -26 -2 -35 0 -10 3 -2 5 17 5 19 0 27 -2 18 -5z"/>
</g>
</svg>
