<svg version="1.1" id="Layer_1" xmlns="http://www.w3.org/2000/svg" xmlns:xlink="http://www.w3.org/1999/xlink" x="0px" y="0px"
	 width="100%" viewBox="0 0 512 512" enable-background="new 0 0 512 512" xml:space="preserve">
<path fill="#000000" opacity="1.000000" stroke="none" 
	d="
M251.000000,0.999999 
	C254.030594,1.000000 257.061188,1.000000 260.634674,1.343461 
	C261.766205,1.947403 262.494354,2.066709 262.922485,2.489672 
	C268.753967,8.250789 274.547119,14.050756 280.343658,19.847227 
	C345.834900,85.337616 411.300934,150.853271 476.876862,216.258728 
	C480.720825,220.092697 481.958923,224.049423 480.445526,229.056152 
	C479.191437,233.205002 474.015869,236.170822 468.529877,236.132217 
	C432.217224,235.876602 395.901978,236.000000 359.587555,236.000000 
	C357.815186,236.000000 356.042816,236.000000 354.000000,236.000000 
	C354.000000,238.313644 354.000000,240.116409 354.000000,241.919174 
	C354.000000,322.876984 354.021606,403.834778 353.971466,484.792572 
	C353.965485,494.452362 355.799866,504.507446 349.000000,513.000000 
	C288.645782,513.000000 228.291550,513.000000 167.382874,512.649414 
	C162.402344,509.804840 160.947174,505.950623 160.951065,500.980408 
	C161.018921,414.510986 161.000000,328.041534 161.000000,241.572083 
	C161.000000,239.800964 161.000000,238.029846 161.000000,236.000000 
	C158.677261,236.000000 156.870377,236.000000 155.063507,236.000000 
	C118.076576,236.000000 81.089622,235.983307 44.102726,236.019470 
	C39.023849,236.024429 35.421082,233.831512 33.694027,229.128677 
	C32.060162,224.679611 32.710934,220.664459 36.324005,217.052170 
	C43.346207,210.031479 49.956463,202.598938 56.974087,195.573471 
	C120.555367,131.920929 184.189209,68.320885 247.794800,4.692606 
	C248.944244,3.542743 249.935120,2.234390 251.000000,0.999999 
z"/>
<path fill="#FFFFFF" opacity="1.000000" stroke="none" 
	d="
M250.531342,0.999999 
	C249.935120,2.234390 248.944244,3.542743 247.794800,4.692606 
	C184.189209,68.320885 120.555367,131.920929 56.974087,195.573471 
	C49.956463,202.598938 43.346207,210.031479 36.324005,217.052170 
	C32.710934,220.664459 32.060162,224.679611 33.694027,229.128677 
	C35.421082,233.831512 39.023849,236.024429 44.102726,236.019470 
	C81.089622,235.983307 118.076576,236.000000 155.063507,236.000000 
	C156.870377,236.000000 158.677261,236.000000 161.000000,236.000000 
	C161.000000,238.029846 161.000000,239.800964 161.000000,241.572083 
	C161.000000,328.041534 161.018921,414.510986 160.951065,500.980408 
	C160.947174,505.950623 162.402344,509.804840 166.914215,512.649414 
	C111.692764,513.000000 56.385521,513.000000 1.039142,513.000000 
	C1.039142,342.439911 1.039142,171.879837 1.039142,1.000000 
	C84.020622,1.000000 167.041656,1.000000 250.531342,0.999999 
z"/>
<path fill="#FFFFFF" opacity="1.000000" stroke="none" 
	d="
M349.468658,513.000000 
	C355.799866,504.507446 353.965485,494.452362 353.971466,484.792572 
	C354.021606,403.834778 354.000000,322.876984 354.000000,241.919174 
	C354.000000,240.116409 354.000000,238.313644 354.000000,236.000000 
	C356.042816,236.000000 357.815186,236.000000 359.587555,236.000000 
	C395.901978,236.000000 432.217224,235.876602 468.529877,236.132217 
	C474.015869,236.170822 479.191437,233.205002 480.445526,229.056152 
	C481.958923,224.049423 480.720825,220.092697 476.876862,216.258728 
	C411.300934,150.853271 345.834900,85.337616 280.343658,19.847227 
	C274.547119,14.050756 268.753967,8.250789 262.922485,2.489672 
	C262.494354,2.066709 261.766205,1.947403 261.088776,1.343461 
	C344.960388,1.000000 428.920776,1.000000 512.940552,1.000000 
	C512.940552,171.546555 512.940552,342.093140 512.940552,513.000000 
	C458.646301,513.000000 404.291809,513.000000 349.468658,513.000000 
z"/>
</svg>